# xmcd
#
# Track frame offsets: 
#        150
#        15327
#        33023
#        46470
#        64803
#        81766
#        98557
#        114673
#        131899
#        146512
#        163512
#        176864
#        193846
#        213346
#        235787
#        250816
#        264380
#
# Disc length: 3789 seconds
#
# Revision: 2
# Processed by: cddbd v1.5.2PL0 Copyright (c) Steve Scherf et al.
# Submitted via: ExactAudioCopyFreeDBPlugin 1.0
#
DISCID=e60ecb11
DTITLE=Ariana Grande - Dangerous Woman (Target Deluxe Edition)
DYEAR=2016
DGENRE=Pop
TTITLE0=Moonlight
TTITLE1=Dangerous Woman
TTITLE2=Be Alright
TTITLE3=Into You
TTITLE4=Side To Side Feat. Nicki Minaj
TTITLE5=Let Me Love You Feat. Lil Wayne
TTITLE6=Greedy
TTITLE7=Leave Me Lonely Feat. Macy Gray
TTITLE8=Everyday Feat. Future
TTITLE9=Sometimes
TTITLE10=I Don't Care
TTITLE11=Bad Decisions
TTITLE12=Touch It
TTITLE13=Knew Better Forever Boy
TTITLE14=Thinking Bout You
TTITLE15=Step On Up
TTITLE16=Jason's Song (Gave It Away)
EXTD=
EXTT0=
EXTT1=
EXTT2=
EXTT3=
EXTT4=
EXTT5=
EXTT6=
EXTT7=
EXTT8=
EXTT9=
EXTT10=
EXTT11=
EXTT12=
EXTT13=
EXTT14=
EXTT15=
EXTT16=
PLAYORDER=
